<?xml version="1.0" encoding="UTF-8"?>
<svg id="Calque_1" xmlns="http://www.w3.org/2000/svg" xmlns:xlink="http://www.w3.org/1999/xlink" version="1.1" viewBox="0 0 3001 3001">
  <!-- Generator: Adobe Illustrator 29.1.0, SVG Export Plug-In . SVG Version: 2.1.0 Build 142)  -->
  <defs>
    <style>
      .st0 {
        fill: none;
      }

      .st1 {
        mask: url(#mask);
      }

      .st2 {
        filter: url(#luminosity-noclip);
      }

      .st3 {
        fill: url(#Dégradé_sans_nom_2);
      }

      .st4 {
        fill: #5bbef9;
      }

      .st5 {
        clip-path: url(#clippath-1);
      }

      .st6 {
        fill: #fff;
      }

      .st7 {
        fill: #a4f9c8;
      }

      .st8 {
        clip-path: url(#clippath);
      }
    </style>
    <clipPath id="clippath">
      <rect class="st0" x="253.5" y="277.4" width="2494" height="2472.3"/>
    </clipPath>
    <filter id="luminosity-noclip" x="-557.5" y="-540.8" width="4116" height="4108.6" color-interpolation-filters="sRGB" filterUnits="userSpaceOnUse">
      <feFlood flood-color="#fff" result="bg"/>
      <feBlend in="SourceGraphic" in2="bg"/>
    </filter>
    <linearGradient id="Dégradé_sans_nom_2" data-name="Dégradé sans nom 2" x1="1190.9" y1="1919.1" x2="1209.4" y2="1919.1" gradientTransform="translate(155999.9 -245371.3) rotate(-180) scale(128.6 -128.6)" gradientUnits="userSpaceOnUse">
      <stop offset="0" stop-color="#fff"/>
      <stop offset="1" stop-color="#000"/>
    </linearGradient>
    <mask id="mask" x="-557.5" y="-540.8" width="4116" height="4108.6" maskUnits="userSpaceOnUse">
      <g class="st2">
        <rect class="st3" x="-100.5" y="-81.1" width="3201.9" height="3189.2" transform="translate(-435 621.3) rotate(-20.5)"/>
      </g>
    </mask>
    <clipPath id="clippath-1">
      <rect class="st0" x="-60.7" y=".1" width="3122.4" height="2768"/>
    </clipPath>
  </defs>
  <g>
    <path class="st6" d="M5370.8,1437.6l-14.7,5.4c-9.8,3.7-19.7,6.9-29.3,11.2l-14.5,6c-4.8,2-9.7,3.9-14.4,6.3-9.4,4.6-18.9,9-28.3,13.6-9.2,5-18.5,10-27.8,14.8-9.1,5.3-18.1,10.7-27.2,16l-3.4,2-3.3,2.2-6.6,4.3-13.3,8.7c-4.5,2.8-8.7,5.9-13,9l-13,9.1c-7.1,5.1-14.1,10.4-21,15.7,98,11.1,195.5,25.7,291.9,43.9,27.1,5.1,54.1,10.5,81,16.2v-216.8c-43.5,5.5-86.4,14.7-128.1,27.9l-15,4.6Z"/>
    <path class="st6" d="M5367.3,1062.8h-1017c-81,0-146.6,65.6-146.6,146.6v701.2c0,81,65.6,146.6,146.6,146.6h266.1v304.4l457-304.4h293.9c81,0,146.6-65.6,146.6-146.6v-184.1c-253.6,83-523.1,186.9-631,229.3-6.9,2.6-12.8-4.5-6.9-8.3,76.6-48.6,254.9-154.4,505.5-257.1-111.2-17.8-223.5-32.2-336.7-43.4-24,24.2-47,49.8-68.9,76.4-13.6,16.9-27.3,33.9-40.1,51.6-6.5,8.7-12.8,17.7-19.2,26.6-6.2,9-12.4,18-18.5,27.2l-9.1,13.8-8.8,13.9c-5.8,9.3-11.7,18.7-17.3,28.2-11.3,19-22.1,38.3-32.3,58h0c-1.3,2.5-4.2,3.4-6.6,2.2-2-1-3-3.4-2.5-5.5,5.4-22,12.4-43.5,20.1-64.7,3.9-10.6,8-21.2,12.2-31.7l6.6-15.7,6.9-15.5c18.6-41.3,40.4-81.4,64.8-120.1,6.1-9.6,12.5-19.1,18.8-28.7,5.4-7.7,10.9-15.5,16.4-23.2-19.8-1.7-39.7-3.3-59.5-4.7-1.4-.1-2.6-.2-4-.3-117.8-9-238.2-14.9-355.6-10.1-51.4,2.7-112.9,7.2-156.3,23.8-9.3,3.7-15,7.8-17.4,10.1-2.3,2-3.2,3.2-2.6,9.1,27.2,80.7,284.9,214.8,414.1,286.5,4.9,2.7.6,8.5-4.9,6.6-170.6-59.7-575.7-210.2-487.6-338.1,70.2-89.1,314.4-86.4,434.3-88,80.8,1.4,161.9,5.2,242.6,11.3,23.4,1.6,46.8,3.5,70.2,5.6,6.7-7.2,13.6-14.2,20.6-21.1,16.5-16.3,33.8-31.9,51.6-46.9l13.6-11.1c4.5-3.7,9-7.4,13.8-10.8l14.1-10.4,7.1-5.2,3.5-2.6,3.7-2.4c9.7-6.5,19.4-13.1,29.3-19.5,10-6.1,20.1-12.1,30.3-18.1,10.3-5.7,20.8-11.1,31.2-16.6,5.2-2.8,10.5-5.2,15.9-7.8l16-7.5c10.6-5.3,21.7-9.2,32.7-13.7l16.5-6.5,16.8-5.6c44.7-15.2,90.8-26.6,137.6-32.8,5.8-1.1,11.7-1.5,17.6-2.2h1.3v-101.6c0-81-65.6-146.6-146.6-146.6ZM4946.6,1345.4c-43.1,7.9-64.7,11.9-78.2,25.4-13.4,13.8-17.5,35.1-25.4,78.5-1.8,9.3-3.8,19.9-5.9,31.5-2.4-11.6-4.2-22-5.9-31.5v-.2c-7.9-43.1-11.9-64.7-25.4-78.2-13.8-13.4-35.1-17.5-78.5-25.4-9.3-1.8-19.9-3.8-31.5-5.9,11.6-2.2,22-4.2,31.5-5.9,43.1-7.9,64.8-11.5,78.2-25.4,13.4-13.8,17.5-35.1,25.4-78.5,1.8-9.3,3.8-19.9,5.9-31.5,2.4,11.6,4.2,22.1,5.9,31.7,7.9,43.1,11.9,64.7,25.4,78.2,13.8,13.4,35.1,17.5,78.5,25.4,9.3,1.8,19.9,3.8,31.5,5.9-11.6,2.2-22,4.2-31.5,5.9ZM5079.3,1234.6c-27.4,5-41.2,7.6-49.9,16.2-8.5,8.8-11.1,22.4-16.2,50.1-1.1,6-2.5,12.7-3.8,20.1-1.5-7.4-2.7-14-3.8-20.1h0c-5-27.6-7.6-41.4-16.2-50-8.8-8.5-22.4-11.1-50.1-16.2-6-1.1-12.7-2.5-20.1-3.8,7.4-1.4,14-2.7,20.1-3.8,27.4-5,41.3-7.4,49.9-16.2,8.5-8.8,11.1-22.4,16.2-50.1,1.1-6,2.5-12.7,3.8-20.1,1.5,7.4,2.7,14.1,3.8,20.2,5,27.4,7.6,41.2,16.2,49.9,8.8,8.5,22.4,11.1,50.1,16.2,6,1.1,12.7,2.5,20.1,3.8-7.4,1.4-14,2.7-20.1,3.8Z"/>
  </g>
  <g class="st8">
    <path class="st4" d="M2475.1,990.7l-28,10.2c-18.6,7-37.6,13.2-55.7,21.3l-27.6,11.5c-9.2,3.8-18.5,7.4-27.4,12-17.9,8.7-36.1,17-53.9,25.9-17.6,9.4-35.2,19-52.9,28.3-17.4,10-34.5,20.3-51.8,30.4l-6.5,3.8-6.3,4.2-12.6,8.2-25.3,16.5c-8.5,5.3-16.6,11.3-24.8,17.2l-24.8,17.4c-13.4,9.8-26.7,19.8-39.9,30,186.6,21.2,372.2,49,555.7,83.5,51.6,9.7,103,20,154.2,30.8v-412.8c-82.7,10.5-164.4,28.1-243.9,53.1l-28.5,8.7Z"/>
    <path class="st4" d="M1920.3,604.4c-52.3,9.6-78.5,14.4-94.9,30.8-16.3,16.8-21.2,42.7-30.8,95.3-2.1,11.3-4.7,24.1-7.2,38.2-2.9-14.1-5.1-26.6-7.2-38.2v-.3c-9.6-52.2-14.4-78.5-30.8-94.9-16.8-16.3-42.7-21.2-95.3-30.8-11.3-2.1-24.1-4.7-38.2-7.2,14.1-2.7,26.6-5.1,38.2-7.2,52.2-9.6,78.6-14,94.9-30.8,16.3-16.8,21.2-42.6,30.8-95.3,2.1-11.3,4.7-24.1,7.2-38.3,2.9,14.1,5.1,26.8,7.2,38.5,9.6,52.2,14.4,78.5,30.8,94.9,16.8,16.3,42.7,21.2,95.3,30.8,11.3,2.1,24.1,4.7,38.2,7.2-14.1,2.7-26.6,5.1-38.2,7.2M1667.6,815.4c-82,15.1-123.1,22.6-148.9,48.3-25.5,26.3-33.2,66.9-48.3,149.5-3.3,17.8-7.3,37.8-11.3,60-4.6-22.2-7.9-41.8-11.3-60v-.4c-15-82-22.6-123.1-48.3-148.9-26.3-25.5-66.9-33.2-149.5-48.3-17.8-3.3-37.8-7.3-60-11.3,22.2-4.2,41.8-7.9,60-11.3,82-15.1,123.4-22,148.9-48.3,25.5-26.4,33.2-66.9,48.3-149.5,3.3-17.8,7.3-37.8,11.3-60,4.6,22.2,7.9,42,11.3,60.4,15.1,81.9,22.6,123.1,48.3,148.8,26.4,25.5,66.9,33.2,149.5,48.3,17.8,3.3,37.8,7.3,60,11.3-22.2,4.2-41.8,7.9-60,11.3M2468.5,277.3H532.5c-154.1,0-279.1,124.9-279.1,279.1v1334.8c0,154.1,125,279.1,279.1,279.1h506.5v579.4l870-579.4h559.4c154.1,0,279.1-124.9,279.1-279.1v-350.4c-482.7,158-995.7,355.8-1201.1,436.5-13.1,5-24.5-8.5-13.1-15.8,145.7-92.5,485.1-294,962.3-489.5-211.7-33.8-425.5-61.4-640.9-82.5-45.8,46.1-89.5,94.7-131.1,145.4-25.9,32.2-52,64.5-76.4,98.2-12.4,16.7-24.4,33.7-36.5,50.6-11.8,17.2-23.7,34.4-35.2,51.8l-17.3,26.2-16.8,26.5c-11.1,17.8-22.3,35.6-32.8,53.7-21.5,36.1-42.1,72.9-61.4,110.4v.2c-2.5,4.5-8.1,6.3-12.6,4-3.9-2-5.8-6.4-4.8-10.4,10.2-41.9,23.6-82.8,38.2-123.2,7.4-20.3,15.2-40.3,23.2-60.3l12.5-29.8,13.1-29.6c35.5-78.7,76.9-155,123.3-228.6,11.6-18.4,23.9-36.4,35.8-54.6,10.4-14.7,20.7-29.5,31.3-44.1-37.8-3.2-75.6-6.2-113.3-9-2.6-.2-4.9-.5-7.5-.7-224.3-17.1-453.5-28.4-676.9-19.2-97.8,5.2-214.9,13.8-297.6,45.4-17.7,7-28.6,14.9-33.2,19.1-4.4,3.8-6.1,6.1-5,17.4,51.8,153.6,542.3,408.9,788.3,545.3,9.3,5.2,1.1,16.3-9.3,12.6-324.8-113.6-1095.9-400.1-928.2-643.7,133.7-169.6,598.5-164.4,826.8-167.5,153.8,2.7,308.1,9.9,461.9,21.5,44.6,3.1,89.1,6.7,133.7,10.7,12.8-13.6,25.9-27.1,39.3-40.3,31.5-31,64.4-60.7,98.3-89.2l25.8-21.1c8.6-7,17.2-14,26.3-20.5l26.9-19.8,13.4-9.9,6.7-5,6.9-4.6c18.6-12.4,37-24.9,55.8-37.1,19.1-11.6,38.3-23,57.6-34.4,19.6-10.8,39.5-21,59.3-31.6,9.8-5.4,20.1-9.9,30.2-14.7l30.5-14.2c20.1-10,41.3-17.6,62.2-26l31.4-12.3,32-10.7c85.1-28.9,172.9-50.6,262-62.5,11.1-2,22.3-2.8,33.5-4.1l2.4-.3v-193.1c0-154.1-125-279.1-279.1-279.1"/>
    <g class="st1">
      <g class="st5">
        <path class="st7" d="M2475.1,990.7l-28,10.2c-18.6,7-37.6,13.2-55.7,21.3l-27.6,11.5c-9.2,3.8-18.5,7.4-27.4,12-17.9,8.7-36.1,17-53.9,25.9-17.6,9.4-35.2,19-52.9,28.3-17.4,10-34.5,20.3-51.8,30.4l-6.5,3.8-6.3,4.2-12.6,8.2-25.3,16.5c-8.5,5.3-16.6,11.3-24.8,17.2l-24.8,17.4c-13.4,9.8-26.7,19.8-39.9,30,186.6,21.2,372.2,49,555.7,83.5,51.6,9.7,103,20,154.2,30.8v-412.8c-82.7,10.5-164.4,28.1-243.9,53.1l-28.5,8.7Z"/>
        <path class="st7" d="M1920.3,604.4c-52.3,9.6-78.5,14.4-94.9,30.8-16.3,16.8-21.2,42.7-30.8,95.3-2.1,11.3-4.7,24.1-7.2,38.2-2.9-14.1-5.1-26.6-7.2-38.2v-.3c-9.6-52.2-14.4-78.5-30.8-94.9-16.8-16.3-42.7-21.2-95.3-30.8-11.3-2.1-24.1-4.7-38.2-7.2,14.1-2.7,26.6-5.1,38.2-7.2,52.2-9.6,78.6-14,94.9-30.8,16.3-16.8,21.2-42.6,30.8-95.3,2.1-11.3,4.7-24.1,7.2-38.3,2.9,14.1,5.1,26.8,7.2,38.5,9.6,52.2,14.4,78.5,30.8,94.9,16.8,16.3,42.7,21.2,95.3,30.8,11.3,2.1,24.1,4.7,38.2,7.2-14.1,2.7-26.6,5.1-38.2,7.2M1667.6,815.4c-82,15.1-123.1,22.6-148.9,48.3-25.5,26.3-33.2,66.9-48.3,149.5-3.3,17.8-7.3,37.8-11.3,60-4.6-22.2-7.9-41.8-11.3-60v-.4c-15-82-22.6-123.1-48.3-148.9-26.3-25.5-66.9-33.2-149.5-48.3-17.8-3.3-37.8-7.3-60-11.3,22.2-4.2,41.8-7.9,60-11.3,82-15.1,123.4-22,148.9-48.3,25.5-26.4,33.2-66.9,48.3-149.5,3.3-17.8,7.3-37.8,11.3-60,4.6,22.2,7.9,42,11.3,60.4,15.1,81.9,22.6,123.1,48.3,148.8,26.4,25.5,66.9,33.2,149.5,48.3,17.8,3.3,37.8,7.3,60,11.3-22.2,4.2-41.8,7.9-60,11.3M2468.5,277.3H532.5c-154.1,0-279.1,124.9-279.1,279.1v1334.8c0,154.1,125,279.1,279.1,279.1h506.5v579.4l870-579.4h559.4c154.1,0,279.1-124.9,279.1-279.1v-350.4c-482.7,158-995.7,355.8-1201.1,436.5-13.1,5-24.5-8.5-13.1-15.8,145.7-92.5,485.1-294,962.3-489.5-211.7-33.8-425.5-61.4-640.9-82.5-45.8,46.1-89.5,94.7-131.1,145.4-25.9,32.2-52,64.5-76.4,98.2-12.4,16.7-24.4,33.7-36.5,50.6-11.8,17.2-23.7,34.4-35.2,51.8l-17.3,26.2-16.8,26.5c-11.1,17.8-22.3,35.6-32.8,53.7-21.5,36.1-42.1,72.9-61.4,110.4v.2c-2.5,4.5-8.1,6.3-12.6,4-3.9-2-5.8-6.4-4.8-10.4,10.2-41.9,23.6-82.8,38.2-123.2,7.4-20.3,15.2-40.3,23.2-60.3l12.5-29.8,13.1-29.6c35.5-78.7,76.9-155,123.3-228.6,11.6-18.4,23.9-36.4,35.8-54.6,10.4-14.7,20.7-29.5,31.3-44.1-37.8-3.2-75.6-6.2-113.3-9-2.6-.2-4.9-.5-7.5-.7-224.3-17.1-453.5-28.4-676.9-19.2-97.8,5.2-214.9,13.8-297.6,45.4-17.7,7-28.6,14.9-33.2,19.1-4.4,3.8-6.1,6.1-5,17.4,51.8,153.6,542.3,408.9,788.3,545.3,9.3,5.2,1.1,16.3-9.3,12.6-324.8-113.6-1095.9-400.1-928.2-643.7,133.7-169.6,598.5-164.4,826.8-167.5,153.8,2.7,308.1,9.9,461.9,21.5,44.6,3.1,89.1,6.7,133.7,10.7,12.8-13.6,25.9-27.1,39.3-40.3,31.5-31,64.4-60.7,98.3-89.2l25.8-21.1c8.6-7,17.2-14,26.3-20.5l26.9-19.8,13.4-9.9,6.7-5,6.9-4.6c18.6-12.4,37-24.9,55.8-37.1,19.1-11.6,38.3-23,57.6-34.4,19.6-10.8,39.5-21,59.3-31.6,9.8-5.4,20.1-9.9,30.2-14.7l30.5-14.2c20.1-10,41.3-17.6,62.2-26l31.4-12.3,32-10.7c85.1-28.9,172.9-50.6,262-62.5,11.1-2,22.3-2.8,33.5-4.1l2.4-.3v-193.1c0-154.1-125-279.1-279.1-279.1"/>
      </g>
    </g>
  </g>
</svg>